
<svg xmlns="http://www.w3.org/2000/svg" viewBox="0 0 920 900" width="920" height="900">
  <defs>
    <style>
      @import url('https://fonts.googleapis.com/css2?family=Inter:wght@400;500;600;700;800&amp;family=JetBrains+Mono:wght@400;500&amp;display=swap');
      .bg { fill: #0d1117; }
      .text-main { fill: #c9d1d9; font-family: 'Inter', sans-serif; }
      .text-muted { fill: #8b949e; font-family: 'Inter', sans-serif; }
      .text-accent { fill: #A3E635; font-family: 'Inter', sans-serif; }
      .mono { font-family: 'JetBrains Mono', monospace; }
      .border { stroke: #30363d; stroke-width: 1; fill: none; }
      .card { fill: #161b22; stroke: #30363d; stroke-width: 1; rx: 8; }
    </style>
    <filter id="glow" x="-20%" y="-20%" width="140%" height="140%">
      <feGaussianBlur stdDeviation="15" result="blur" />
      <feComposite in="SourceGraphic" in2="blur" operator="over" />
    </filter>
  </defs>
  
  <rect width="100%" height="100%" class="bg" rx="10"/>

  <g stroke="#A3E635" stroke-width="1" opacity="0.2">
    <path d="M 600,0 L 700,100 L 900,100" fill="none"/>
    <path d="M 700,100 L 750,250 L 920,250" fill="none"/>
    <path d="M 500,200 L 600,280 L 700,280" fill="none"/>
    <circle cx="700" cy="100" r="4" fill="#A3E635" filter="url(#glow)" opacity="0.8"/>
    <circle cx="900" cy="100" r="2" fill="#A3E635"/>
    <circle cx="600" cy="0" r="2" fill="#A3E635"/>
    <circle cx="750" cy="250" r="3" fill="#A3E635"/>
    <circle cx="600" cy="280" r="2" fill="#A3E635"/>
    
    <!-- Concentric radar circles -->
    <circle cx="700" cy="100" r="60" fill="none" stroke="#A3E635" opacity="0.1"/>
    <circle cx="700" cy="100" r="120" fill="none" stroke="#A3E635" opacity="0.05"/>
  </g>

  <text x="40" y="60" font-size="16" class="text-main font-semibold">Hi, I'm</text>
  <text x="40" y="110" font-size="48" font-weight="800" class="text-main">NASEER</text>
  <text x="245" y="110" font-size="48" font-weight="800" class="text-accent">PASHA</text>
  
  <text x="40" y="150" font-size="14" class="text-muted mono">// Building digital products that make an impact.</text>
  
  <!-- Tags -->
  <g transform="translate(40, 180)">
    <rect x="0" y="0" width="180" height="28" rx="4" stroke="#A3E635" stroke-width="1" fill="rgba(163, 230, 53, 0.05)"/>
    <text x="90" y="19" font-size="12" font-weight="600" class="text-accent mono" text-anchor="middle">FULL-STACK DEVELOPER</text>
    
    <rect x="195" y="0" width="130" height="28" rx="4" class="border"/>
    <text x="260" y="19" font-size="12" font-weight="500" class="text-muted mono" text-anchor="middle">PROBLEM SOLVER</text>
    
    <rect x="340" y="0" width="140" height="28" rx="4" class="border"/>
    <text x="410" y="19" font-size="12" font-weight="500" class="text-muted mono" text-anchor="middle">LIFELONG LEARNER</text>
  </g>
  
  <!-- Socials -->
  <g transform="translate(40, 230)" opacity="0.8">
    <rect x="0" y="0" width="36" height="36" rx="8" class="border"/>
    <path d="M18 10a8 8 0 00-2.5 15.6c.4.1.5-.2.5-.4v-1.4c-2.2.5-2.7-1-2.7-1-.4-.9-.9-1.2-.9-1.2-.7-.5.1-.5.1-.5.8.1 1.2.8 1.2.8.7 1.2 1.9.9 2.3.7.1-.5.3-.9.5-1.1-1.8-.2-3.6-.9-3.6-4 0-.9.3-1.6.8-2.1-.1-.2-.4-1 .1-2.1 0 0 .7-.2 2.2.8.6-.2 1.3-.3 2-.3.7 0 1.4.1 2 .3 1.5-1 2.2-.8 2.2-.8.4 1.1.1 1.9.1 2.1.5.5.8 1.2.8 2.1 0 3.1-1.9 3.7-3.7 3.9.3.3.6.8.6 1.6v2.4c0 .2.1.5.6.4A8 8 0 0018 10z" fill="#c9d1d9"/>
    
    <rect x="50" y="0" width="36" height="36" rx="8" class="border"/>
    <path d="M13 14h2v7h-2v-7zm1-3a1.2 1.2 0 100 2.4 1.2 1.2 0 000-2.4zm3 3h2v1h.1c.3-.6 1.1-1.2 2.2-1.2 2.4 0 2.8 1.6 2.8 3.6V21h-2v-3.5c0-1 0-2.1-1.3-2.1-1.3 0-1.5 1-1.5 2V21h-2v-7z" fill="#c9d1d9"/>
    
    <rect x="100" y="0" width="36" height="36" rx="8" class="border"/>
    <path d="M14 13.5a3.5 3.5 0 107 0 3.5 3.5 0 00-7 0zm2 0a1.5 1.5 0 113 0 1.5 1.5 0 01-3 0z" fill="#c9d1d9"/>
    
    <rect x="150" y="0" width="36" height="36" rx="8" class="border"/>
    <path d="M10 13l8 5 8-5v8H10v-8zm8 3.8L11.5 12h13L18 16.8z" fill="#c9d1d9"/>
  </g>

  <g transform="translate(680, 60)">
    <rect x="0" y="0" width="200" height="130" class="card"/>
    <text x="15" y="25" font-size="12" class="text-accent mono">naseer@dev:~$ <tspan class="text-main">whoami</tspan></text>
    <text x="15" y="55" font-size="12" class="text-accent mono">&gt; <tspan class="text-muted">Code.</tspan></text>
    <text x="15" y="75" font-size="12" class="text-accent mono">&gt; <tspan class="text-muted">Design.</tspan></text>
    <text x="15" y="95" font-size="12" class="text-accent mono">&gt; <tspan class="text-muted">Ship.</tspan></text>
    <text x="15" y="115" font-size="12" class="text-accent mono">&gt; <tspan class="text-muted">Repeat.</tspan></text>
  </g>

  <g transform="translate(40, 320)">
    <circle cx="5" cy="5" r="3" fill="#A3E635"/>
    <text x="15" y="10" font-size="14" font-weight="600" class="text-main mono letter-spacing">ABOUT ME</text>
    <line x1="5" y1="20" x2="5" y2="140" stroke="#30363d" stroke-width="2" stroke-dasharray="4 4"/>
    
    <text x="25" y="40" font-size="12" class="text-muted" line-height="1.8">
      <tspan x="25" dy="0">I'm a full-stack developer who loves turning ideas into</tspan>
      <tspan x="25" dy="20">real products. I enjoy working with modern technologies,</tspan>
      <tspan x="25" dy="20">designing scalable systems and learning new things.</tspan>
      <tspan x="25" dy="30">When I'm not coding, you'll find me reading, exploring</tspan>
      <tspan x="25" dy="20">new tech or building something cool.</tspan>
    </text>
  </g>

  <g transform="translate(460, 320)">
    <circle cx="5" cy="5" r="3" fill="#A3E635"/>
    <text x="15" y="10" font-size="14" font-weight="600" class="text-main mono letter-spacing">TECH STACK</text>

    <g transform="translate(0, 30)">
      <rect x="0" y="0" width="45" height="45" rx="8" fill="#161b22" stroke="#30363d"/>
      <rect x="12" y="10" width="20" height="20" rx="4" fill="#F7DF1E"/>
      <text x="22" y="24" font-size="9" font-weight="bold" fill="#000" text-anchor="middle" font-family="sans-serif">JS</text>
      <text x="22.5" y="55" font-size="10" class="text-muted" text-anchor="middle">JavaScript</text>
    </g>
  
    <g transform="translate(55, 30)">
      <rect x="0" y="0" width="45" height="45" rx="8" fill="#161b22" stroke="#30363d"/>
      <rect x="12" y="10" width="20" height="20" rx="4" fill="#3178C6"/>
      <text x="22" y="24" font-size="9" font-weight="bold" fill="#FFF" text-anchor="middle" font-family="sans-serif">TS</text>
      <text x="22.5" y="55" font-size="10" class="text-muted" text-anchor="middle">TypeScript</text>
    </g>
  
    <g transform="translate(110, 30)">
      <rect x="0" y="0" width="45" height="45" rx="8" fill="#161b22" stroke="#30363d"/>
      <rect x="12" y="10" width="20" height="20" rx="4" fill="#61DAFB"/>
      <text x="22" y="24" font-size="9" font-weight="bold" fill="#000" text-anchor="middle" font-family="sans-serif">Re</text>
      <text x="22.5" y="55" font-size="10" class="text-muted" text-anchor="middle">React</text>
    </g>
  
    <g transform="translate(165, 30)">
      <rect x="0" y="0" width="45" height="45" rx="8" fill="#161b22" stroke="#30363d"/>
      <rect x="12" y="10" width="20" height="20" rx="4" fill="#339933"/>
      <text x="22" y="24" font-size="9" font-weight="bold" fill="#FFF" text-anchor="middle" font-family="sans-serif">Node</text>
      <text x="22.5" y="55" font-size="10" class="text-muted" text-anchor="middle">Node.js</text>
    </g>
  
    <g transform="translate(220, 30)">
      <rect x="0" y="0" width="45" height="45" rx="8" fill="#161b22" stroke="#30363d"/>
      <rect x="12" y="10" width="20" height="20" rx="4" fill="#EEEEEE"/>
      <text x="22" y="24" font-size="9" font-weight="bold" fill="#000" text-anchor="middle" font-family="sans-serif">ex</text>
      <text x="22.5" y="55" font-size="10" class="text-muted" text-anchor="middle">Express</text>
    </g>
  
    <g transform="translate(275, 30)">
      <rect x="0" y="0" width="45" height="45" rx="8" fill="#161b22" stroke="#30363d"/>
      <rect x="12" y="10" width="20" height="20" rx="4" fill="#47A248"/>
      <text x="22" y="24" font-size="9" font-weight="bold" fill="#FFF" text-anchor="middle" font-family="sans-serif">MDB</text>
      <text x="22.5" y="55" font-size="10" class="text-muted" text-anchor="middle">MongoDB</text>
    </g>
  
    <g transform="translate(330, 30)">
      <rect x="0" y="0" width="45" height="45" rx="8" fill="#161b22" stroke="#30363d"/>
      <rect x="12" y="10" width="20" height="20" rx="4" fill="#06B6D4"/>
      <text x="22" y="24" font-size="9" font-weight="bold" fill="#FFF" text-anchor="middle" font-family="sans-serif">TW</text>
      <text x="22.5" y="55" font-size="10" class="text-muted" text-anchor="middle">TailwindCSS</text>
    </g>
  
    <g transform="translate(385, 30)">
      <rect x="0" y="0" width="45" height="45" rx="8" fill="#161b22" stroke="#30363d"/>
      <rect x="12" y="10" width="20" height="20" rx="4" fill="#3776AB"/>
      <text x="22" y="24" font-size="9" font-weight="bold" fill="#FFF" text-anchor="middle" font-family="sans-serif">Py</text>
      <text x="22.5" y="55" font-size="10" class="text-muted" text-anchor="middle">Python</text>
    </g>
  
    <g transform="translate(0, 100)">
      <rect x="0" y="0" width="45" height="45" rx="8" fill="#161b22" stroke="#30363d"/>
      <rect x="12" y="10" width="20" height="20" rx="4" fill="#00599C"/>
      <text x="22" y="24" font-size="9" font-weight="bold" fill="#FFF" text-anchor="middle" font-family="sans-serif">C++</text>
      <text x="22.5" y="55" font-size="10" class="text-muted" text-anchor="middle">C++</text>
    </g>
  
    <g transform="translate(55, 100)">
      <rect x="0" y="0" width="45" height="45" rx="8" fill="#161b22" stroke="#30363d"/>
      <rect x="12" y="10" width="20" height="20" rx="4" fill="#F05032"/>
      <text x="22" y="24" font-size="9" font-weight="bold" fill="#FFF" text-anchor="middle" font-family="sans-serif">Git</text>
      <text x="22.5" y="55" font-size="10" class="text-muted" text-anchor="middle">Git</text>
    </g>
  
    <g transform="translate(110, 100)">
      <rect x="0" y="0" width="45" height="45" rx="8" fill="#161b22" stroke="#30363d"/>
      <rect x="12" y="10" width="20" height="20" rx="4" fill="#2496ED"/>
      <text x="22" y="24" font-size="9" font-weight="bold" fill="#FFF" text-anchor="middle" font-family="sans-serif">Doc</text>
      <text x="22.5" y="55" font-size="10" class="text-muted" text-anchor="middle">Docker</text>
    </g>
  
    <g transform="translate(165, 100)">
      <rect x="0" y="0" width="45" height="45" rx="8" fill="#161b22" stroke="#30363d"/>
      <rect x="12" y="10" width="20" height="20" rx="4" fill="#FF9900"/>
      <text x="22" y="24" font-size="9" font-weight="bold" fill="#000" text-anchor="middle" font-family="sans-serif">AWS</text>
      <text x="22.5" y="55" font-size="10" class="text-muted" text-anchor="middle">AWS</text>
    </g>
  
    <g transform="translate(220, 100)">
      <rect x="0" y="0" width="45" height="45" rx="8" fill="#161b22" stroke="#30363d"/>
      <rect x="12" y="10" width="20" height="20" rx="4" fill="#FF6C37"/>
      <text x="22" y="24" font-size="9" font-weight="bold" fill="#FFF" text-anchor="middle" font-family="sans-serif">PM</text>
      <text x="22.5" y="55" font-size="10" class="text-muted" text-anchor="middle">Postman</text>
    </g>
  
    <g transform="translate(275, 100)">
      <rect x="0" y="0" width="45" height="45" rx="8" fill="#161b22" stroke="#30363d"/>
      <rect x="12" y="10" width="20" height="20" rx="4" fill="#F24E1E"/>
      <text x="22" y="24" font-size="9" font-weight="bold" fill="#FFF" text-anchor="middle" font-family="sans-serif">Fig</text>
      <text x="22.5" y="55" font-size="10" class="text-muted" text-anchor="middle">Figma</text>
    </g>
  
    <g transform="translate(330, 100)">
      <rect x="0" y="0" width="45" height="45" rx="8" fill="#161b22" stroke="#30363d"/>
      <rect x="12" y="10" width="20" height="20" rx="4" fill="#FCC624"/>
      <text x="22" y="24" font-size="9" font-weight="bold" fill="#000" text-anchor="middle" font-family="sans-serif">Lin</text>
      <text x="22.5" y="55" font-size="10" class="text-muted" text-anchor="middle">Linux</text>
    </g>
  
    <g transform="translate(385, 100)">
      <rect x="0" y="0" width="45" height="45" rx="8" fill="#161b22" stroke="#30363d"/>
      <rect x="12" y="10" width="20" height="20" rx="4" fill="#007ACC"/>
      <text x="22" y="24" font-size="9" font-weight="bold" fill="#FFF" text-anchor="middle" font-family="sans-serif">VS</text>
      <text x="22.5" y="55" font-size="10" class="text-muted" text-anchor="middle">VS Code</text>
    </g>
  </g>
  <g transform="translate(40, 520)">
    <circle cx="5" cy="5" r="3" fill="#A3E635"/>
    <text x="15" y="10" font-size="14" font-weight="600" class="text-main mono letter-spacing">FEATURED PROJECTS</text>

    <g transform="translate(0, 30)">
      <rect x="0" y="0" width="195" height="135" class="card"/>
      <path d="M13 3a7 7 0 00-6 10H5a5 5 0 000 10h14a6 6 0 001-11.9A7 7 0 0013 3z" fill="none" stroke="#A3E635" stroke-width="1.5" transform="translate(15, 15) scale(0.8)"/>
      <text x="15" y="55" font-size="12" font-weight="600" class="text-main">CNS - Cloud Nexus Stream</text>
      
      <text x="15" y="75" font-size="10" class="text-muted">
        <tspan x="15" dy="0">Personal media cloud platform </tspan>
        <tspan x="15" dy="14">for streaming, sync & sharing.</tspan>
      </text>
      
      <g transform="translate(15, 105)">
  <rect x="0" y="0" width="32" height="14" rx="2" fill="#21262d"/>
            <text x="16" y="10" font-size="8" class="text-muted mono" text-anchor="middle">MERN</text><rect x="37" y="0" width="62" height="14" rx="2" fill="#21262d"/>
            <text x="68" y="10" font-size="8" class="text-muted mono" text-anchor="middle">Socket.io</text><rect x="104" y="0" width="44" height="14" rx="2" fill="#21262d"/>
            <text x="126" y="10" font-size="8" class="text-muted mono" text-anchor="middle">FFmpeg</text><rect x="153" y="0" width="44" height="14" rx="2" fill="#21262d"/>
            <text x="175" y="10" font-size="8" class="text-muted mono" text-anchor="middle">Docker</text>
      </g>
      <text x="15" y="135" font-size="10" class="text-muted">★ 120   ⑂ 32</text>
    </g>
  
    <g transform="translate(215, 30)">
      <rect x="0" y="0" width="195" height="135" class="card"/>
      <path d="M4 4h16v16H4V4zm2 2v12h12V6H6zm2 3h3v2H8V9zm4 0h3v2h-3V9zm-4 4h7v2H8v-2z" fill="none" stroke="#A3E635" stroke-width="1.5" transform="translate(15, 15) scale(0.8)"/>
      <text x="15" y="55" font-size="12" font-weight="600" class="text-main">GCC Developer OS</text>
      
      <text x="15" y="75" font-size="10" class="text-muted">
        <tspan x="15" dy="0">Developer ecosystem platform f</tspan>
        <tspan x="15" dy="14">or my college coding club.</tspan>
      </text>
      
      <g transform="translate(15, 105)">
  <rect x="0" y="0" width="32" height="14" rx="2" fill="#21262d"/>
            <text x="16" y="10" font-size="8" class="text-muted mono" text-anchor="middle">MERN</text><rect x="37" y="0" width="38" height="14" rx="2" fill="#21262d"/>
            <text x="56" y="10" font-size="8" class="text-muted mono" text-anchor="middle">Redis</text><rect x="80" y="0" width="44" height="14" rx="2" fill="#21262d"/>
            <text x="102" y="10" font-size="8" class="text-muted mono" text-anchor="middle">BullMQ</text><rect x="129" y="0" width="20" height="14" rx="2" fill="#21262d"/>
            <text x="139" y="10" font-size="8" class="text-muted mono" text-anchor="middle">AI</text>
      </g>
      <text x="15" y="135" font-size="10" class="text-muted">★ 85   ⑂ 21</text>
    </g>
  
    <g transform="translate(430, 30)">
      <rect x="0" y="0" width="195" height="135" class="card"/>
      <path d="M12 2l9 4-9 4-9-4 9-4zm0 6l9 4-9 4-9-4 9-4zm0 6l9 4-9 4-9-4 9-4z" fill="none" stroke="#A3E635" stroke-width="1.5" transform="translate(15, 15) scale(0.8)"/>
      <text x="15" y="55" font-size="12" font-weight="600" class="text-main">Smart Study Buddy</text>
      
      <text x="15" y="75" font-size="10" class="text-muted">
        <tspan x="15" dy="0">AI powered study companion for</tspan>
        <tspan x="15" dy="14"> students.</tspan>
      </text>
      
      <g transform="translate(15, 105)">
  <rect x="0" y="0" width="80" height="14" rx="2" fill="#21262d"/>
            <text x="40" y="10" font-size="8" class="text-muted mono" text-anchor="middle">React Native</text><rect x="85" y="0" width="50" height="14" rx="2" fill="#21262d"/>
            <text x="110" y="10" font-size="8" class="text-muted mono" text-anchor="middle">Node.js</text><rect x="140" y="0" width="50" height="14" rx="2" fill="#21262d"/>
            <text x="165" y="10" font-size="8" class="text-muted mono" text-anchor="middle">MongoDB</text>
      </g>
      <text x="15" y="135" font-size="10" class="text-muted">★ 63   ⑂ 18</text>
    </g>
  
    <g transform="translate(645, 30)">
      <rect x="0" y="0" width="195" height="135" class="card"/>
      <path d="M9 12h6m-6 4h6m2 5H7a2 2 0 01-2-2V5a2 2 0 012-2h5.586a1 1 0 01.707.293l5.414 5.414a1 1 0 01.293.707V19a2 2 0 01-2 2z" fill="none" stroke="#A3E635" stroke-width="1.5" transform="translate(15, 15) scale(0.8)"/>
      <text x="15" y="55" font-size="12" font-weight="600" class="text-main">AI Resume Analyzer</text>
      
      <text x="15" y="75" font-size="10" class="text-muted">
        <tspan x="15" dy="0">Analyze resumes and get AI pow</tspan>
        <tspan x="15" dy="14">ered suggestions.</tspan>
      </text>
      
      <g transform="translate(15, 105)">
  <rect x="0" y="0" width="50" height="14" rx="2" fill="#21262d"/>
            <text x="25" y="10" font-size="8" class="text-muted mono" text-anchor="middle">Next.js</text><rect x="55" y="0" width="56" height="14" rx="2" fill="#21262d"/>
            <text x="83" y="10" font-size="8" class="text-muted mono" text-anchor="middle">Groq API</text><rect x="116" y="0" width="74" height="14" rx="2" fill="#21262d"/>
            <text x="153" y="10" font-size="8" class="text-muted mono" text-anchor="middle">TailwindCSS</text>
      </g>
      <text x="15" y="135" font-size="10" class="text-muted">★ 47   ⑂ 11</text>
    </g>
  </g>
  <g transform="translate(40, 720)">
    <circle cx="5" cy="5" r="3" fill="#A3E635"/>
    <text x="15" y="10" font-size="14" font-weight="600" class="text-main mono letter-spacing">GITHUB STATS</text>
    
    <!-- Graph Card -->
    <g transform="translate(0, 30)">
      <rect x="0" y="0" width="370" height="110" class="card"/>
      <text x="15" y="25" font-size="10" class="text-muted">Total Contributions</text>
      <text x="15" y="50" font-size="24" font-weight="bold" class="text-main">2,143</text>
      <text x="15" y="70" font-size="10" class="text-accent">↑ 32% this year</text>
      
      <g transform="translate(120, 15)">
        <text x="0" y="0" font-size="8" class="text-muted">Jan  Feb  Mar  Apr  May  Jun  Jul</text>
        <g transform="translate(0, 10)">
<rect x="0" y="0" width="7" height="7" rx="1" fill="#39d353"/><rect x="0" y="9" width="7" height="7" rx="1" fill="#26a641"/><rect x="0" y="18" width="7" height="7" rx="1" fill="#006d32"/><rect x="0" y="27" width="7" height="7" rx="1" fill="#0e4429"/><rect x="0" y="36" width="7" height="7" rx="1" fill="#161b22"/><rect x="0" y="45" width="7" height="7" rx="1" fill="#0e4429"/><rect x="9" y="0" width="7" height="7" rx="1" fill="#39d353"/><rect x="9" y="9" width="7" height="7" rx="1" fill="#161b22"/><rect x="9" y="18" width="7" height="7" rx="1" fill="#0e4429"/><rect x="9" y="27" width="7" height="7" rx="1" fill="#39d353"/><rect x="9" y="36" width="7" height="7" rx="1" fill="#26a641"/><rect x="9" y="45" width="7" height="7" rx="1" fill="#0e4429"/><rect x="18" y="0" width="7" height="7" rx="1" fill="#0e4429"/><rect x="18" y="9" width="7" height="7" rx="1" fill="#161b22"/><rect x="18" y="18" width="7" height="7" rx="1" fill="#006d32"/><rect x="18" y="27" width="7" height="7" rx="1" fill="#39d353"/><rect x="18" y="36" width="7" height="7" rx="1" fill="#26a641"/><rect x="18" y="45" width="7" height="7" rx="1" fill="#161b22"/><rect x="27" y="0" width="7" height="7" rx="1" fill="#0e4429"/><rect x="27" y="9" width="7" height="7" rx="1" fill="#161b22"/><rect x="27" y="18" width="7" height="7" rx="1" fill="#161b22"/><rect x="27" y="27" width="7" height="7" rx="1" fill="#26a641"/><rect x="27" y="36" width="7" height="7" rx="1" fill="#006d32"/><rect x="27" y="45" width="7" height="7" rx="1" fill="#39d353"/><rect x="36" y="0" width="7" height="7" rx="1" fill="#39d353"/><rect x="36" y="9" width="7" height="7" rx="1" fill="#161b22"/><rect x="36" y="18" width="7" height="7" rx="1" fill="#39d353"/><rect x="36" y="27" width="7" height="7" rx="1" fill="#26a641"/><rect x="36" y="36" width="7" height="7" rx="1" fill="#161b22"/><rect x="36" y="45" width="7" height="7" rx="1" fill="#39d353"/><rect x="45" y="0" width="7" height="7" rx="1" fill="#26a641"/><rect x="45" y="9" width="7" height="7" rx="1" fill="#161b22"/><rect x="45" y="18" width="7" height="7" rx="1" fill="#006d32"/><rect x="45" y="27" width="7" height="7" rx="1" fill="#006d32"/><rect x="45" y="36" width="7" height="7" rx="1" fill="#39d353"/><rect x="45" y="45" width="7" height="7" rx="1" fill="#39d353"/><rect x="54" y="0" width="7" height="7" rx="1" fill="#006d32"/><rect x="54" y="9" width="7" height="7" rx="1" fill="#161b22"/><rect x="54" y="18" width="7" height="7" rx="1" fill="#0e4429"/><rect x="54" y="27" width="7" height="7" rx="1" fill="#006d32"/><rect x="54" y="36" width="7" height="7" rx="1" fill="#006d32"/><rect x="54" y="45" width="7" height="7" rx="1" fill="#39d353"/><rect x="63" y="0" width="7" height="7" rx="1" fill="#006d32"/><rect x="63" y="9" width="7" height="7" rx="1" fill="#006d32"/><rect x="63" y="18" width="7" height="7" rx="1" fill="#0e4429"/><rect x="63" y="27" width="7" height="7" rx="1" fill="#006d32"/><rect x="63" y="36" width="7" height="7" rx="1" fill="#39d353"/><rect x="63" y="45" width="7" height="7" rx="1" fill="#0e4429"/><rect x="72" y="0" width="7" height="7" rx="1" fill="#26a641"/><rect x="72" y="9" width="7" height="7" rx="1" fill="#006d32"/><rect x="72" y="18" width="7" height="7" rx="1" fill="#006d32"/><rect x="72" y="27" width="7" height="7" rx="1" fill="#0e4429"/><rect x="72" y="36" width="7" height="7" rx="1" fill="#0e4429"/><rect x="72" y="45" width="7" height="7" rx="1" fill="#26a641"/><rect x="81" y="0" width="7" height="7" rx="1" fill="#0e4429"/><rect x="81" y="9" width="7" height="7" rx="1" fill="#0e4429"/><rect x="81" y="18" width="7" height="7" rx="1" fill="#26a641"/><rect x="81" y="27" width="7" height="7" rx="1" fill="#39d353"/><rect x="81" y="36" width="7" height="7" rx="1" fill="#0e4429"/><rect x="81" y="45" width="7" height="7" rx="1" fill="#0e4429"/><rect x="90" y="0" width="7" height="7" rx="1" fill="#26a641"/><rect x="90" y="9" width="7" height="7" rx="1" fill="#39d353"/><rect x="90" y="18" width="7" height="7" rx="1" fill="#0e4429"/><rect x="90" y="27" width="7" height="7" rx="1" fill="#006d32"/><rect x="90" y="36" width="7" height="7" rx="1" fill="#006d32"/><rect x="90" y="45" width="7" height="7" rx="1" fill="#006d32"/><rect x="99" y="0" width="7" height="7" rx="1" fill="#39d353"/><rect x="99" y="9" width="7" height="7" rx="1" fill="#006d32"/><rect x="99" y="18" width="7" height="7" rx="1" fill="#006d32"/><rect x="99" y="27" width="7" height="7" rx="1" fill="#26a641"/><rect x="99" y="36" width="7" height="7" rx="1" fill="#006d32"/><rect x="99" y="45" width="7" height="7" rx="1" fill="#161b22"/><rect x="108" y="0" width="7" height="7" rx="1" fill="#39d353"/><rect x="108" y="9" width="7" height="7" rx="1" fill="#161b22"/><rect x="108" y="18" width="7" height="7" rx="1" fill="#26a641"/><rect x="108" y="27" width="7" height="7" rx="1" fill="#26a641"/><rect x="108" y="36" width="7" height="7" rx="1" fill="#006d32"/><rect x="108" y="45" width="7" height="7" rx="1" fill="#006d32"/><rect x="117" y="0" width="7" height="7" rx="1" fill="#26a641"/><rect x="117" y="9" width="7" height="7" rx="1" fill="#006d32"/><rect x="117" y="18" width="7" height="7" rx="1" fill="#0e4429"/><rect x="117" y="27" width="7" height="7" rx="1" fill="#006d32"/><rect x="117" y="36" width="7" height="7" rx="1" fill="#26a641"/><rect x="117" y="45" width="7" height="7" rx="1" fill="#26a641"/><rect x="126" y="0" width="7" height="7" rx="1" fill="#161b22"/><rect x="126" y="9" width="7" height="7" rx="1" fill="#0e4429"/><rect x="126" y="18" width="7" height="7" rx="1" fill="#006d32"/><rect x="126" y="27" width="7" height="7" rx="1" fill="#39d353"/><rect x="126" y="36" width="7" height="7" rx="1" fill="#006d32"/><rect x="126" y="45" width="7" height="7" rx="1" fill="#006d32"/><rect x="135" y="0" width="7" height="7" rx="1" fill="#006d32"/><rect x="135" y="9" width="7" height="7" rx="1" fill="#006d32"/><rect x="135" y="18" width="7" height="7" rx="1" fill="#006d32"/><rect x="135" y="27" width="7" height="7" rx="1" fill="#0e4429"/><rect x="135" y="36" width="7" height="7" rx="1" fill="#0e4429"/><rect x="135" y="45" width="7" height="7" rx="1" fill="#39d353"/><rect x="144" y="0" width="7" height="7" rx="1" fill="#26a641"/><rect x="144" y="9" width="7" height="7" rx="1" fill="#0e4429"/><rect x="144" y="18" width="7" height="7" rx="1" fill="#26a641"/><rect x="144" y="27" width="7" height="7" rx="1" fill="#0e4429"/><rect x="144" y="36" width="7" height="7" rx="1" fill="#0e4429"/><rect x="144" y="45" width="7" height="7" rx="1" fill="#161b22"/><rect x="153" y="0" width="7" height="7" rx="1" fill="#0e4429"/><rect x="153" y="9" width="7" height="7" rx="1" fill="#26a641"/><rect x="153" y="18" width="7" height="7" rx="1" fill="#0e4429"/><rect x="153" y="27" width="7" height="7" rx="1" fill="#006d32"/><rect x="153" y="36" width="7" height="7" rx="1" fill="#39d353"/><rect x="153" y="45" width="7" height="7" rx="1" fill="#0e4429"/><rect x="162" y="0" width="7" height="7" rx="1" fill="#0e4429"/><rect x="162" y="9" width="7" height="7" rx="1" fill="#006d32"/><rect x="162" y="18" width="7" height="7" rx="1" fill="#161b22"/><rect x="162" y="27" width="7" height="7" rx="1" fill="#161b22"/><rect x="162" y="36" width="7" height="7" rx="1" fill="#39d353"/><rect x="162" y="45" width="7" height="7" rx="1" fill="#0e4429"/><rect x="171" y="0" width="7" height="7" rx="1" fill="#39d353"/><rect x="171" y="9" width="7" height="7" rx="1" fill="#006d32"/><rect x="171" y="18" width="7" height="7" rx="1" fill="#26a641"/><rect x="171" y="27" width="7" height="7" rx="1" fill="#39d353"/><rect x="171" y="36" width="7" height="7" rx="1" fill="#39d353"/><rect x="171" y="45" width="7" height="7" rx="1" fill="#0e4429"/><rect x="180" y="0" width="7" height="7" rx="1" fill="#39d353"/><rect x="180" y="9" width="7" height="7" rx="1" fill="#0e4429"/><rect x="180" y="18" width="7" height="7" rx="1" fill="#006d32"/><rect x="180" y="27" width="7" height="7" rx="1" fill="#006d32"/><rect x="180" y="36" width="7" height="7" rx="1" fill="#006d32"/><rect x="180" y="45" width="7" height="7" rx="1" fill="#006d32"/><rect x="189" y="0" width="7" height="7" rx="1" fill="#0e4429"/><rect x="189" y="9" width="7" height="7" rx="1" fill="#006d32"/><rect x="189" y="18" width="7" height="7" rx="1" fill="#0e4429"/><rect x="189" y="27" width="7" height="7" rx="1" fill="#39d353"/><rect x="189" y="36" width="7" height="7" rx="1" fill="#26a641"/><rect x="189" y="45" width="7" height="7" rx="1" fill="#161b22"/><rect x="198" y="0" width="7" height="7" rx="1" fill="#39d353"/><rect x="198" y="9" width="7" height="7" rx="1" fill="#006d32"/><rect x="198" y="18" width="7" height="7" rx="1" fill="#26a641"/><rect x="198" y="27" width="7" height="7" rx="1" fill="#0e4429"/><rect x="198" y="36" width="7" height="7" rx="1" fill="#161b22"/><rect x="198" y="45" width="7" height="7" rx="1" fill="#161b22"/><rect x="207" y="0" width="7" height="7" rx="1" fill="#39d353"/><rect x="207" y="9" width="7" height="7" rx="1" fill="#39d353"/><rect x="207" y="18" width="7" height="7" rx="1" fill="#161b22"/><rect x="207" y="27" width="7" height="7" rx="1" fill="#26a641"/><rect x="207" y="36" width="7" height="7" rx="1" fill="#0e4429"/><rect x="207" y="45" width="7" height="7" rx="1" fill="#26a641"/><rect x="216" y="0" width="7" height="7" rx="1" fill="#006d32"/><rect x="216" y="9" width="7" height="7" rx="1" fill="#39d353"/><rect x="216" y="18" width="7" height="7" rx="1" fill="#161b22"/><rect x="216" y="27" width="7" height="7" rx="1" fill="#006d32"/><rect x="216" y="36" width="7" height="7" rx="1" fill="#0e4429"/><rect x="216" y="45" width="7" height="7" rx="1" fill="#39d353"/>
        </g>
      </g>
    </g>
    
    <!-- Top Languages Card -->
    <g transform="translate(385, 30)">
      <rect x="0" y="0" width="225" height="110" class="card"/>
      <text x="15" y="25" font-size="10" class="text-muted">TOP LANGUAGES</text>
      
      <g transform="translate(45, 65)">
        <circle cx="0" cy="0" r="30" fill="none" stroke="#F7DF1E" stroke-width="12" stroke-dasharray="190 200"/>
        <circle cx="0" cy="0" r="30" fill="none" stroke="#3178C6" stroke-width="12" stroke-dasharray="60 200" stroke-dashoffset="-80"/>
        <circle cx="0" cy="0" r="30" fill="none" stroke="#3776AB" stroke-width="12" stroke-dasharray="40 200" stroke-dashoffset="-140"/>
      </g>
      
      <g transform="translate(100, 35)">
        <circle cx="0" cy="-3" r="3" fill="#F7DF1E"/><text x="10" y="0" font-size="9" class="text-main">JavaScript</text><text x="95" y="0" font-size="9" class="text-muted" text-anchor="end">42.9%</text>
        <circle cx="0" cy="12" r="3" fill="#3178C6"/><text x="10" y="15" font-size="9" class="text-main">TypeScript</text><text x="95" y="15" font-size="9" class="text-muted" text-anchor="end">21.6%</text>
        <circle cx="0" cy="27" r="3" fill="#3776AB"/><text x="10" y="30" font-size="9" class="text-main">Python</text><text x="95" y="30" font-size="9" class="text-muted" text-anchor="end">16.3%</text>
        <circle cx="0" cy="42" r="3" fill="#00599C"/><text x="10" y="45" font-size="9" class="text-main">C++</text><text x="95" y="45" font-size="9" class="text-muted" text-anchor="end">7.8%</text>
        <circle cx="0" cy="57" r="3" fill="#888888"/><text x="10" y="60" font-size="9" class="text-main">Other</text><text x="95" y="60" font-size="9" class="text-muted" text-anchor="end">11.4%</text>
      </g>
    </g>
    
    <!-- Quote Card -->
    <g transform="translate(625, 30)">
      <rect x="0" y="0" width="215" height="110" class="card"/>
      <text x="15" y="25" font-size="10" class="text-muted">QUOTE</text>
      <text x="15" y="45" font-size="20" font-weight="bold" class="text-accent">“</text>
      <text x="35" y="45" font-size="11" class="text-main">
        <tspan x="35" dy="0">Code is not just</tspan>
        <tspan x="35" dy="15">what I write,</tspan>
        <tspan x="35" dy="15">it's how I solve</tspan>
        <tspan x="35" dy="15">problems.</tspan>
      </text>
      <text x="200" y="95" font-size="10" class="text-accent" text-anchor="end">- Naseer Pasha</text>
    </g>
  </g>

  <g transform="translate(40, 880)">
    <text x="0" y="0" font-size="11" class="text-muted mono">&gt; Building the future, one commit at a time.</text>
    <text x="800" y="0" font-size="11" class="text-muted mono" text-anchor="end">Thanks for visiting! ✨</text>
  </g>
</svg>