
<svg xmlns="http://www.w3.org/2000/svg" viewBox="0 0 400 120" width="400" height="120">
  <defs>
    <style>
      @import url('https://fonts.googleapis.com/css2?family=JetBrains+Mono:wght@400;700&amp;display=swap');
      .bg { fill: #0d1117; stroke: #30363d; stroke-width: 1.5; rx: 6; }
      .text-green { fill: #58a6ff; font-family: 'JetBrains Mono', monospace; font-size: 16px; font-weight: bold; }
      .text-grey { fill: #8b949e; font-family: 'JetBrains Mono', monospace; font-size: 13px; }
      .icon { fill: #58a6ff; }
    </style>
  </defs>
  <rect x="2" y="2" width="396" height="116" class="bg" />
  <g transform="translate(20, 25) scale(1.2)">
    <path class="icon" d="M14 2H6c-1.1 0-1.99.9-1.99 2L4 20c0 1.1.89 2 1.99 2H18c1.1 0 2-.9 2-2V8l-6-6Zm2 16H8v-2h8v2Zm0-4H8v-2h8v2Zm-3-5V3.5L18.5 9H13Z" />
  </g>
  <text x="60" y="40" class="text-green">> AI Resume Analyzer</text>
  <text x="20" y="75" class="text-grey">Automated resume parsing and ATS</text>
  <text x="20" y="95" class="text-grey">scoring system using OpenAI.</text>
</svg>
