
<svg xmlns="http://www.w3.org/2000/svg" viewBox="0 0 400 120" width="400" height="120">
  <defs>
    <style>
      @import url('https://fonts.googleapis.com/css2?family=JetBrains+Mono:wght@400;700&amp;display=swap');
      .bg { fill: #0d1117; stroke: #30363d; stroke-width: 1.5; rx: 6; }
      .text-green { fill: #58a6ff; font-family: 'JetBrains Mono', monospace; font-size: 16px; font-weight: bold; }
      .text-grey { fill: #8b949e; font-family: 'JetBrains Mono', monospace; font-size: 13px; }
      .icon { fill: #58a6ff; }
    </style>
  </defs>
  <rect x="2" y="2" width="396" height="116" class="bg" />
  <g transform="translate(20, 25) scale(1.2)">
    <path class="icon" d="M2.5 4h19c.825 0 1.5.675 1.5 1.5v13c0 .825-.675 1.5-1.5 1.5h-19C1.675 20 1 19.325 1 18.5v-13C1 4.675 1.675 4 2.5 4Zm8.375 11.5L5.125 9.75 6.185 8.69l4.69 4.69-4.69 4.69-1.06-1.06 5.75-5.75ZM11 14h6v1.5h-6V14Z" />
  </g>
  <text x="60" y="40" class="text-green">> GCC Developer OS</text>
  <text x="20" y="75" class="text-grey">A minimal, developer-focused OS</text>
  <text x="20" y="95" class="text-grey">environment and tools.</text>
</svg>
